<svg width="16" height="16" viewBox="0 0 16 16" fill="none" xmlns="http://www.w3.org/2000/svg">
<path fill-rule="evenodd" clip-rule="evenodd" d="M8.00004 2.66671C5.05452 2.66671 2.66671 5.05452 2.66671 8.00004C2.66671 10.9456 5.05452 13.3334 8.00004 13.3334C10.9456 13.3334 13.3334 10.9456 13.3334 8.00004C13.3334 5.05452 10.9456 2.66671 8.00004 2.66671ZM1.33337 8.00004C1.33337 4.31814 4.31814 1.33337 8.00004 1.33337C11.6819 1.33337 14.6667 4.31814 14.6667 8.00004C14.6667 11.6819 11.6819 14.6667 8.00004 14.6667C4.31814 14.6667 1.33337 11.6819 1.33337 8.00004ZM8.00004 6.66663C8.36823 6.66663 8.66671 6.9651 8.66671 7.33329V10.6666C8.66671 11.0348 8.36823 11.3333 8.00004 11.3333C7.63185 11.3333 7.33337 11.0348 7.33337 10.6666V7.33329C7.33337 6.9651 7.63185 6.66663 8.00004 6.66663ZM8.00004 5.99996C8.36823 5.99996 8.66671 5.70148 8.66671 5.33329C8.66671 4.9651 8.36823 4.66663 8.00004 4.66663C7.63185 4.66663 7.33337 4.9651 7.33337 5.33329C7.33337 5.70148 7.63185 5.99996 8.00004 5.99996Z" fill="#1A1A1A"/>
</svg>
